<svg width="556" height="59" viewBox="0 0 556 59" fill="none" xmlns="http://www.w3.org/2000/svg">
<path d="M67.7248 0H3.27521C1.46636 0 0 1.438 0 3.21186V48.7881C0 50.562 1.46636 52 3.27521 52H67.7248C69.5336 52 71 50.562 71 48.7881V3.21186C71 1.438 69.5336 0 67.7248 0Z" fill="#F0572D"/>
<path d="M47.4049 35.838C46.3556 35.8369 45.3074 35.7682 44.2673 35.6324C43.2956 35.5167 42.3453 35.268 41.444 34.8937C40.6568 34.5765 39.9647 34.068 39.433 33.4163C38.9053 32.7083 38.6396 31.8449 38.6797 30.9688V9.72559H44.1755V19.9072L43.1209 18.1728C43.5973 17.6413 44.1879 17.2201 44.8502 16.9394C45.5338 16.6376 46.2535 16.4217 46.9922 16.2971C47.5887 16.1867 48.1933 16.1244 48.8001 16.1108C51.6081 16.1108 53.7457 16.9416 55.213 18.6032C56.6803 20.2648 57.4139 22.6929 57.4139 25.8877C57.459 27.4934 57.2037 29.0936 56.6607 30.6091C56.2276 31.7846 55.5054 32.8371 54.558 33.6732C53.6376 34.443 52.5583 35.0084 51.3941 35.3305C50.0959 35.6854 48.7525 35.8563 47.4049 35.838ZM47.3329 31.2643C48.2517 31.3083 49.1634 31.0848 49.953 30.6219C50.6041 30.1886 51.0974 29.5631 51.3614 28.8361C51.6627 27.9945 51.809 27.1071 51.7937 26.2153C51.8417 25.0694 51.65 23.9261 51.2304 22.8557C50.93 22.1065 50.3898 21.4731 49.691 21.0506C49.0016 20.6717 48.2212 20.4809 47.4311 20.4982C46.8761 20.5028 46.323 20.5631 45.7804 20.678C45.2128 20.7906 44.6668 20.99 44.1624 21.269V29.5363C44.149 29.727 44.179 29.9181 44.2504 30.0959C44.3218 30.2737 44.4327 30.4337 44.5751 30.5641C44.9035 30.8378 45.2983 31.0236 45.7215 31.1037C46.2505 31.2186 46.791 31.2747 47.3329 31.2707V31.2643Z" fill="white"/>
<path d="M13.9453 35.2855V10.6826H24.0264C28.2929 10.6826 31.4284 11.7233 33.4328 13.8045C35.4372 15.8858 36.4395 18.9478 36.4395 22.9905C36.4395 27.0246 35.4372 30.0801 33.4328 32.1571C31.4284 34.2341 28.2929 35.2726 24.0264 35.2726L13.9453 35.2855ZM20.0372 30.6797H23.3124C25.5701 30.6797 27.282 30.0651 28.4479 28.836C29.6139 27.6027 30.1969 25.6627 30.1969 23.0033C30.1969 20.3439 29.6139 18.3397 28.4479 17.1192C27.282 15.8987 25.5723 15.282 23.3124 15.282H20.0372V30.6797Z" fill="white"/>
<path d="M34.1274 40.6493V42.2617H13.5918V40.6365L34.1274 40.6493Z" fill="white"/>
<path d="M54.6625 40.6493V42.2617H34.127V40.6365L54.6625 40.6493Z" fill="white"/>
<path d="M88.022 42.18C87.134 42.18 86.36 42.03 85.7 41.73C85.04 41.418 84.386 40.938 83.738 40.29C83.666 40.218 83.63 40.128 83.63 40.02C83.63 39.924 83.672 39.834 83.756 39.75C83.84 39.654 83.93 39.606 84.026 39.606C84.134 39.606 84.236 39.66 84.332 39.768C84.8 40.32 85.352 40.74 85.988 41.028C86.636 41.316 87.314 41.46 88.022 41.46C88.946 41.46 89.708 41.238 90.308 40.794C90.908 40.35 91.208 39.762 91.208 39.03C91.196 38.454 91.04 37.98 90.74 37.608C90.44 37.236 90.068 36.942 89.624 36.726C89.192 36.498 88.598 36.246 87.842 35.97C87.014 35.658 86.366 35.382 85.898 35.142C85.442 34.902 85.046 34.56 84.71 34.116C84.386 33.672 84.224 33.09 84.224 32.37C84.224 31.782 84.386 31.248 84.71 30.768C85.034 30.288 85.496 29.91 86.096 29.634C86.696 29.358 87.392 29.22 88.184 29.22C88.892 29.22 89.564 29.352 90.2 29.616C90.836 29.868 91.34 30.228 91.712 30.696C91.832 30.864 91.892 30.99 91.892 31.074C91.892 31.17 91.844 31.26 91.748 31.344C91.664 31.416 91.568 31.452 91.46 31.452C91.364 31.452 91.286 31.416 91.226 31.344C90.89 30.912 90.458 30.57 89.93 30.318C89.402 30.066 88.82 29.94 88.184 29.94C87.272 29.94 86.51 30.156 85.898 30.588C85.298 31.02 84.998 31.608 84.998 32.352C84.998 32.868 85.142 33.306 85.43 33.666C85.73 34.026 86.102 34.32 86.546 34.548C86.99 34.764 87.542 34.992 88.202 35.232C89.042 35.532 89.708 35.808 90.2 36.06C90.692 36.312 91.112 36.678 91.46 37.158C91.808 37.638 91.982 38.274 91.982 39.066C91.982 39.618 91.82 40.134 91.496 40.614C91.172 41.094 90.704 41.478 90.092 41.766C89.492 42.042 88.802 42.18 88.022 42.18ZM101.5 39.84C101.584 39.84 101.656 39.876 101.716 39.948C101.776 40.008 101.806 40.08 101.806 40.164C101.806 40.248 101.782 40.32 101.734 40.38C101.338 40.908 100.846 41.34 100.258 41.676C99.6705 42.012 99.0405 42.18 98.3685 42.18C97.4685 42.18 96.6705 41.988 95.9745 41.604C95.2785 41.22 94.7325 40.674 94.3365 39.966C93.9525 39.258 93.7605 38.436 93.7605 37.5C93.7605 36.54 93.9465 35.7 94.3185 34.98C94.7025 34.248 95.2065 33.69 95.8305 33.306C96.4545 32.922 97.1205 32.73 97.8285 32.73C98.5365 32.73 99.1905 32.886 99.7905 33.198C100.402 33.498 100.9 33.954 101.284 34.566C101.668 35.178 101.872 35.934 101.896 36.834C101.896 36.93 101.86 37.02 101.788 37.104C101.716 37.176 101.632 37.212 101.536 37.212H94.4625V37.446C94.4625 38.19 94.6125 38.874 94.9125 39.498C95.2125 40.11 95.6565 40.596 96.2445 40.956C96.8325 41.316 97.5405 41.496 98.3685 41.496C98.9445 41.496 99.4845 41.358 99.9885 41.082C100.504 40.794 100.906 40.434 101.194 40.002C101.278 39.894 101.38 39.84 101.5 39.84ZM97.8285 33.45C97.3845 33.45 96.9285 33.57 96.4605 33.81C96.0045 34.038 95.5965 34.386 95.2365 34.854C94.8885 35.31 94.6545 35.868 94.5345 36.528H101.158V36.366C101.098 35.754 100.9 35.232 100.564 34.8C100.24 34.356 99.8325 34.02 99.3405 33.792C98.8605 33.564 98.3565 33.45 97.8285 33.45ZM108.338 32.73C109.406 32.73 110.21 33.048 110.75 33.684C111.29 34.308 111.56 35.124 111.56 36.132V41.64C111.56 41.736 111.524 41.82 111.452 41.892C111.38 41.964 111.296 42 111.2 42C111.092 42 111.002 41.964 110.93 41.892C110.87 41.82 110.84 41.736 110.84 41.64V36.204C110.84 35.388 110.624 34.722 110.192 34.206C109.772 33.678 109.13 33.414 108.266 33.414C107.738 33.414 107.216 33.54 106.7 33.792C106.196 34.044 105.782 34.386 105.458 34.818C105.134 35.25 104.972 35.712 104.972 36.204V41.64C104.972 41.736 104.936 41.82 104.864 41.892C104.792 41.964 104.708 42 104.612 42C104.504 42 104.414 41.964 104.342 41.892C104.282 41.82 104.252 41.736 104.252 41.64V33.378C104.252 33.282 104.288 33.198 104.36 33.126C104.432 33.054 104.516 33.018 104.612 33.018C104.72 33.018 104.804 33.054 104.864 33.126C104.936 33.198 104.972 33.282 104.972 33.378V34.584C105.32 34.044 105.806 33.6 106.43 33.252C107.066 32.904 107.702 32.73 108.338 32.73ZM117.901 32.946C117.985 32.946 118.063 32.982 118.135 33.054C118.207 33.126 118.243 33.204 118.243 33.288C118.243 33.384 118.207 33.468 118.135 33.54C118.075 33.6 117.997 33.63 117.901 33.63H115.921V40.038C115.921 40.566 116.011 40.92 116.191 41.1C116.383 41.268 116.623 41.352 116.911 41.352C116.959 41.352 117.025 41.34 117.109 41.316C117.205 41.292 117.283 41.28 117.343 41.28C117.427 41.28 117.499 41.316 117.559 41.388C117.619 41.448 117.649 41.52 117.649 41.604C117.649 41.712 117.577 41.808 117.433 41.892C117.289 41.964 117.121 42 116.929 42C116.629 42 116.377 41.982 116.173 41.946C115.969 41.898 115.753 41.736 115.525 41.46C115.309 41.172 115.201 40.71 115.201 40.074V33.63H113.725C113.641 33.63 113.563 33.594 113.491 33.522C113.419 33.45 113.383 33.372 113.383 33.288C113.383 33.192 113.413 33.114 113.473 33.054C113.545 32.982 113.629 32.946 113.725 32.946H115.201V30.66C115.201 30.564 115.237 30.48 115.309 30.408C115.381 30.336 115.465 30.3 115.561 30.3C115.669 30.3 115.753 30.336 115.813 30.408C115.885 30.48 115.921 30.564 115.921 30.66V32.946H117.901ZM120.968 41.64C120.968 41.736 120.932 41.82 120.86 41.892C120.788 41.964 120.704 42 120.608 42C120.5 42 120.41 41.964 120.338 41.892C120.278 41.82 120.248 41.736 120.248 41.64V33.09C120.248 32.994 120.284 32.91 120.356 32.838C120.428 32.766 120.512 32.73 120.608 32.73C120.716 32.73 120.8 32.766 120.86 32.838C120.932 32.91 120.968 32.994 120.968 33.09V41.64ZM120.608 31.506C120.416 31.506 120.26 31.452 120.14 31.344C120.032 31.236 119.978 31.098 119.978 30.93V30.786C119.978 30.618 120.038 30.48 120.158 30.372C120.278 30.264 120.434 30.21 120.626 30.21C120.794 30.21 120.932 30.264 121.04 30.372C121.16 30.48 121.22 30.618 121.22 30.786V30.93C121.22 31.098 121.16 31.236 121.04 31.344C120.932 31.452 120.788 31.506 120.608 31.506ZM127.305 32.946C127.389 32.946 127.467 32.982 127.539 33.054C127.611 33.126 127.647 33.204 127.647 33.288C127.647 33.384 127.611 33.468 127.539 33.54C127.479 33.6 127.401 33.63 127.305 33.63H125.325V40.038C125.325 40.566 125.415 40.92 125.595 41.1C125.787 41.268 126.027 41.352 126.315 41.352C126.363 41.352 126.429 41.34 126.513 41.316C126.609 41.292 126.687 41.28 126.747 41.28C126.831 41.28 126.903 41.316 126.963 41.388C127.023 41.448 127.053 41.52 127.053 41.604C127.053 41.712 126.981 41.808 126.837 41.892C126.693 41.964 126.525 42 126.333 42C126.033 42 125.781 41.982 125.577 41.946C125.373 41.898 125.157 41.736 124.929 41.46C124.713 41.172 124.605 40.71 124.605 40.074V33.63H123.129C123.045 33.63 122.967 33.594 122.895 33.522C122.823 33.45 122.787 33.372 122.787 33.288C122.787 33.192 122.817 33.114 122.877 33.054C122.949 32.982 123.033 32.946 123.129 32.946H124.605V30.66C124.605 30.564 124.641 30.48 124.713 30.408C124.785 30.336 124.869 30.3 124.965 30.3C125.073 30.3 125.157 30.336 125.217 30.408C125.289 30.48 125.325 30.564 125.325 30.66V32.946H127.305ZM136.674 39.84C136.758 39.84 136.83 39.876 136.89 39.948C136.95 40.008 136.98 40.08 136.98 40.164C136.98 40.248 136.956 40.32 136.908 40.38C136.512 40.908 136.02 41.34 135.432 41.676C134.844 42.012 134.214 42.18 133.542 42.18C132.642 42.18 131.844 41.988 131.148 41.604C130.452 41.22 129.906 40.674 129.51 39.966C129.126 39.258 128.934 38.436 128.934 37.5C128.934 36.54 129.12 35.7 129.492 34.98C129.876 34.248 130.38 33.69 131.004 33.306C131.628 32.922 132.294 32.73 133.002 32.73C133.71 32.73 134.364 32.886 134.964 33.198C135.576 33.498 136.074 33.954 136.458 34.566C136.842 35.178 137.046 35.934 137.07 36.834C137.07 36.93 137.034 37.02 136.962 37.104C136.89 37.176 136.806 37.212 136.71 37.212H129.636V37.446C129.636 38.19 129.786 38.874 130.086 39.498C130.386 40.11 130.83 40.596 131.418 40.956C132.006 41.316 132.714 41.496 133.542 41.496C134.118 41.496 134.658 41.358 135.162 41.082C135.678 40.794 136.08 40.434 136.368 40.002C136.452 39.894 136.554 39.84 136.674 39.84ZM133.002 33.45C132.558 33.45 132.102 33.57 131.634 33.81C131.178 34.038 130.77 34.386 130.41 34.854C130.062 35.31 129.828 35.868 129.708 36.528H136.332V36.366C136.272 35.754 136.074 35.232 135.738 34.8C135.414 34.356 135.006 34.02 134.514 33.792C134.034 33.564 133.53 33.45 133.002 33.45ZM148.183 32.73C148.699 32.73 149.197 32.79 149.677 32.91C150.169 33.03 150.559 33.192 150.847 33.396C151.147 33.588 151.297 33.792 151.297 34.008C151.297 34.104 151.261 34.188 151.189 34.26C151.129 34.332 151.051 34.368 150.955 34.368C150.847 34.368 150.763 34.35 150.703 34.314C150.655 34.278 150.583 34.212 150.487 34.116C150.331 33.936 150.169 33.804 150.001 33.72C149.569 33.516 148.957 33.414 148.165 33.414C147.481 33.414 146.845 33.594 146.257 33.954C145.681 34.314 145.219 34.806 144.871 35.43C144.535 36.042 144.367 36.714 144.367 37.446C144.367 38.214 144.523 38.91 144.835 39.534C145.159 40.146 145.609 40.626 146.185 40.974C146.773 41.322 147.433 41.496 148.165 41.496C148.645 41.496 149.023 41.454 149.299 41.37C149.575 41.286 149.851 41.166 150.127 41.01C150.319 40.89 150.487 40.758 150.631 40.614C150.691 40.554 150.751 40.506 150.811 40.47C150.871 40.422 150.931 40.398 150.991 40.398C151.087 40.398 151.159 40.428 151.207 40.488C151.267 40.548 151.297 40.626 151.297 40.722C151.297 40.89 151.159 41.094 150.883 41.334C150.607 41.562 150.223 41.76 149.731 41.928C149.251 42.096 148.711 42.18 148.111 42.18C147.247 42.18 146.473 41.976 145.789 41.568C145.117 41.16 144.589 40.596 144.205 39.876C143.833 39.156 143.647 38.346 143.647 37.446C143.647 36.606 143.833 35.826 144.205 35.106C144.589 34.386 145.123 33.81 145.807 33.378C146.503 32.946 147.295 32.73 148.183 32.73ZM161.75 37.464C161.75 38.352 161.558 39.156 161.174 39.876C160.79 40.584 160.256 41.148 159.572 41.568C158.9 41.976 158.15 42.18 157.322 42.18C156.494 42.18 155.738 41.976 155.054 41.568C154.382 41.148 153.848 40.578 153.452 39.858C153.068 39.138 152.876 38.34 152.876 37.464C152.876 36.576 153.068 35.772 153.452 35.052C153.848 34.332 154.382 33.768 155.054 33.36C155.726 32.94 156.482 32.73 157.322 32.73C158.15 32.73 158.9 32.94 159.572 33.36C160.256 33.768 160.79 34.332 161.174 35.052C161.558 35.772 161.75 36.576 161.75 37.464ZM161.03 37.464C161.03 36.696 160.868 36.006 160.544 35.394C160.232 34.782 159.794 34.302 159.23 33.954C158.666 33.594 158.03 33.414 157.322 33.414C156.626 33.414 155.99 33.594 155.414 33.954C154.85 34.302 154.406 34.782 154.082 35.394C153.758 36.006 153.596 36.696 153.596 37.464C153.596 38.22 153.758 38.904 154.082 39.516C154.406 40.128 154.85 40.614 155.414 40.974C155.99 41.322 156.626 41.496 157.322 41.496C158.03 41.496 158.666 41.322 159.23 40.974C159.794 40.626 160.232 40.146 160.544 39.534C160.868 38.91 161.03 38.22 161.03 37.464ZM174.329 32.91C175.361 32.91 176.141 33.234 176.669 33.882C177.209 34.53 177.479 35.37 177.479 36.402V41.64C177.479 41.736 177.443 41.82 177.371 41.892C177.311 41.964 177.227 42 177.119 42C177.011 42 176.921 41.964 176.849 41.892C176.789 41.82 176.759 41.736 176.759 41.64V36.474C176.759 35.622 176.549 34.932 176.129 34.404C175.721 33.864 175.097 33.594 174.257 33.594C173.741 33.594 173.231 33.726 172.727 33.99C172.235 34.254 171.833 34.608 171.521 35.052C171.209 35.484 171.053 35.958 171.053 36.474V41.64C171.053 41.736 171.017 41.82 170.945 41.892C170.885 41.964 170.801 42 170.693 42C170.585 42 170.495 41.964 170.423 41.892C170.363 41.82 170.333 41.736 170.333 41.64V36.384C170.333 35.556 170.135 34.884 169.739 34.368C169.343 33.852 168.743 33.594 167.939 33.594C167.435 33.594 166.943 33.72 166.463 33.972C165.983 34.224 165.587 34.566 165.275 34.998C164.975 35.43 164.825 35.892 164.825 36.384V41.64C164.825 41.736 164.789 41.82 164.717 41.892C164.645 41.964 164.561 42 164.465 42C164.357 42 164.267 41.964 164.195 41.892C164.135 41.82 164.105 41.736 164.105 41.64V33.378C164.105 33.282 164.141 33.198 164.213 33.126C164.285 33.054 164.369 33.018 164.465 33.018C164.573 33.018 164.657 33.054 164.717 33.126C164.789 33.198 164.825 33.282 164.825 33.378V34.638C165.173 34.134 165.623 33.72 166.175 33.396C166.739 33.072 167.327 32.91 167.939 32.91C168.599 32.91 169.187 33.078 169.703 33.414C170.219 33.75 170.597 34.242 170.837 34.89C171.089 34.338 171.563 33.87 172.259 33.486C172.967 33.102 173.657 32.91 174.329 32.91ZM188.715 37.464C188.715 38.352 188.523 39.156 188.139 39.876C187.755 40.584 187.221 41.148 186.537 41.568C185.865 41.976 185.115 42.18 184.287 42.18C183.459 42.18 182.703 41.976 182.019 41.568C181.347 41.148 180.813 40.578 180.417 39.858C180.033 39.138 179.841 38.34 179.841 37.464C179.841 36.576 180.033 35.772 180.417 35.052C180.813 34.332 181.347 33.768 182.019 33.36C182.691 32.94 183.447 32.73 184.287 32.73C185.115 32.73 185.865 32.94 186.537 33.36C187.221 33.768 187.755 34.332 188.139 35.052C188.523 35.772 188.715 36.576 188.715 37.464ZM187.995 37.464C187.995 36.696 187.833 36.006 187.509 35.394C187.197 34.782 186.759 34.302 186.195 33.954C185.631 33.594 184.995 33.414 184.287 33.414C183.591 33.414 182.955 33.594 182.379 33.954C181.815 34.302 181.371 34.782 181.047 35.394C180.723 36.006 180.561 36.696 180.561 37.464C180.561 38.22 180.723 38.904 181.047 39.516C181.371 40.128 181.815 40.614 182.379 40.974C182.955 41.322 183.591 41.496 184.287 41.496C184.995 41.496 185.631 41.322 186.195 40.974C186.759 40.626 187.197 40.146 187.509 39.534C187.833 38.91 187.995 38.22 187.995 37.464ZM203.032 39.84C203.116 39.84 203.188 39.876 203.248 39.948C203.308 40.008 203.338 40.08 203.338 40.164C203.338 40.248 203.314 40.32 203.266 40.38C202.87 40.908 202.378 41.34 201.79 41.676C201.202 42.012 200.572 42.18 199.9 42.18C199 42.18 198.202 41.988 197.506 41.604C196.81 41.22 196.264 40.674 195.868 39.966C195.484 39.258 195.292 38.436 195.292 37.5C195.292 36.54 195.478 35.7 195.85 34.98C196.234 34.248 196.738 33.69 197.362 33.306C197.986 32.922 198.652 32.73 199.36 32.73C200.068 32.73 200.722 32.886 201.322 33.198C201.934 33.498 202.432 33.954 202.816 34.566C203.2 35.178 203.404 35.934 203.428 36.834C203.428 36.93 203.392 37.02 203.32 37.104C203.248 37.176 203.164 37.212 203.068 37.212H195.994V37.446C195.994 38.19 196.144 38.874 196.444 39.498C196.744 40.11 197.188 40.596 197.776 40.956C198.364 41.316 199.072 41.496 199.9 41.496C200.476 41.496 201.016 41.358 201.52 41.082C202.036 40.794 202.438 40.434 202.726 40.002C202.81 39.894 202.912 39.84 203.032 39.84ZM199.36 33.45C198.916 33.45 198.46 33.57 197.992 33.81C197.536 34.038 197.128 34.386 196.768 34.854C196.42 35.31 196.186 35.868 196.066 36.528H202.69V36.366C202.63 35.754 202.432 35.232 202.096 34.8C201.772 34.356 201.364 34.02 200.872 33.792C200.392 33.564 199.888 33.45 199.36 33.45ZM209.869 32.73C210.937 32.73 211.741 33.048 212.281 33.684C212.821 34.308 213.091 35.124 213.091 36.132V41.64C213.091 41.736 213.055 41.82 212.983 41.892C212.911 41.964 212.827 42 212.731 42C212.623 42 212.533 41.964 212.461 41.892C212.401 41.82 212.371 41.736 212.371 41.64V36.204C212.371 35.388 212.155 34.722 211.723 34.206C211.303 33.678 210.661 33.414 209.797 33.414C209.269 33.414 208.747 33.54 208.231 33.792C207.727 34.044 207.313 34.386 206.989 34.818C206.665 35.25 206.503 35.712 206.503 36.204V41.64C206.503 41.736 206.467 41.82 206.395 41.892C206.323 41.964 206.239 42 206.143 42C206.035 42 205.945 41.964 205.873 41.892C205.813 41.82 205.783 41.736 205.783 41.64V33.378C205.783 33.282 205.819 33.198 205.891 33.126C205.963 33.054 206.047 33.018 206.143 33.018C206.251 33.018 206.335 33.054 206.395 33.126C206.467 33.198 206.503 33.282 206.503 33.378V34.584C206.851 34.044 207.337 33.6 207.961 33.252C208.597 32.904 209.233 32.73 209.869 32.73ZM224.283 32.946C224.367 32.946 224.445 32.982 224.517 33.054C224.589 33.126 224.625 33.204 224.625 33.288C224.625 33.384 224.589 33.468 224.517 33.54C224.457 33.6 224.379 33.63 224.283 33.63H222.303V40.038C222.303 40.566 222.393 40.92 222.573 41.1C222.765 41.268 223.005 41.352 223.293 41.352C223.341 41.352 223.407 41.34 223.491 41.316C223.587 41.292 223.665 41.28 223.725 41.28C223.809 41.28 223.881 41.316 223.941 41.388C224.001 41.448 224.031 41.52 224.031 41.604C224.031 41.712 223.959 41.808 223.815 41.892C223.671 41.964 223.503 42 223.311 42C223.011 42 222.759 41.982 222.555 41.946C222.351 41.898 222.135 41.736 221.907 41.46C221.691 41.172 221.583 40.71 221.583 40.074V33.63H220.107C220.023 33.63 219.945 33.594 219.873 33.522C219.801 33.45 219.765 33.372 219.765 33.288C219.765 33.192 219.795 33.114 219.855 33.054C219.927 32.982 220.011 32.946 220.107 32.946H221.583V30.66C221.583 30.564 221.619 30.48 221.691 30.408C221.763 30.336 221.847 30.3 221.943 30.3C222.051 30.3 222.135 30.336 222.195 30.408C222.267 30.48 222.303 30.564 222.303 30.66V32.946H224.283ZM233.417 33.018C233.525 33.018 233.609 33.054 233.669 33.126C233.741 33.198 233.777 33.282 233.777 33.378V38.616C233.777 39.756 233.453 40.626 232.805 41.226C232.169 41.814 231.299 42.108 230.195 42.108C229.091 42.108 228.221 41.814 227.585 41.226C226.949 40.626 226.631 39.756 226.631 38.616V33.378C226.631 33.282 226.667 33.198 226.739 33.126C226.811 33.054 226.895 33.018 226.991 33.018C227.099 33.018 227.183 33.054 227.243 33.126C227.315 33.198 227.351 33.282 227.351 33.378V38.616C227.351 39.516 227.603 40.212 228.107 40.704C228.611 41.184 229.307 41.424 230.195 41.424C231.095 41.424 231.797 41.184 232.301 40.704C232.805 40.212 233.057 39.516 233.057 38.616V33.378C233.057 33.282 233.087 33.198 233.147 33.126C233.219 33.054 233.309 33.018 233.417 33.018ZM245.549 32.91C246.581 32.91 247.373 33.24 247.925 33.9C248.477 34.548 248.753 35.376 248.753 36.384V41.64C248.753 41.736 248.717 41.82 248.645 41.892C248.573 41.964 248.489 42 248.393 42C248.285 42 248.195 41.964 248.123 41.892C248.063 41.82 248.033 41.736 248.033 41.64V36.384C248.033 35.556 247.829 34.884 247.421 34.368C247.013 33.852 246.389 33.594 245.549 33.594C245.033 33.594 244.523 33.72 244.019 33.972C243.527 34.224 243.125 34.566 242.813 34.998C242.501 35.43 242.345 35.892 242.345 36.384V41.64C242.345 41.736 242.309 41.82 242.237 41.892C242.165 41.964 242.081 42 241.985 42C241.877 42 241.787 41.964 241.715 41.892C241.655 41.82 241.625 41.736 241.625 41.64V29.04C241.625 28.944 241.661 28.86 241.733 28.788C241.805 28.716 241.889 28.68 241.985 28.68C242.093 28.68 242.177 28.716 242.237 28.788C242.309 28.86 242.345 28.944 242.345 29.04V34.728C242.681 34.2 243.143 33.768 243.731 33.432C244.331 33.084 244.937 32.91 245.549 32.91ZM259.976 37.464C259.976 38.352 259.784 39.156 259.4 39.876C259.016 40.584 258.482 41.148 257.798 41.568C257.126 41.976 256.376 42.18 255.548 42.18C254.72 42.18 253.964 41.976 253.28 41.568C252.608 41.148 252.074 40.578 251.678 39.858C251.294 39.138 251.102 38.34 251.102 37.464C251.102 36.576 251.294 35.772 251.678 35.052C252.074 34.332 252.608 33.768 253.28 33.36C253.952 32.94 254.708 32.73 255.548 32.73C256.376 32.73 257.126 32.94 257.798 33.36C258.482 33.768 259.016 34.332 259.4 35.052C259.784 35.772 259.976 36.576 259.976 37.464ZM259.256 37.464C259.256 36.696 259.094 36.006 258.77 35.394C258.458 34.782 258.02 34.302 257.456 33.954C256.892 33.594 256.256 33.414 255.548 33.414C254.852 33.414 254.216 33.594 253.64 33.954C253.076 34.302 252.632 34.782 252.308 35.394C251.984 36.006 251.822 36.696 251.822 37.464C251.822 38.22 251.984 38.904 252.308 39.516C252.632 40.128 253.076 40.614 253.64 40.974C254.216 41.322 254.852 41.496 255.548 41.496C256.256 41.496 256.892 41.322 257.456 40.974C258.02 40.626 258.458 40.146 258.77 39.534C259.094 38.91 259.256 38.22 259.256 37.464ZM270.054 33.018C270.162 33.018 270.246 33.054 270.306 33.126C270.378 33.198 270.414 33.282 270.414 33.378V41.118C270.414 42.03 270.228 42.822 269.856 43.494C269.484 44.166 268.962 44.682 268.29 45.042C267.618 45.414 266.85 45.6 265.986 45.6C265.506 45.6 265.02 45.534 264.528 45.402C264.036 45.282 263.628 45.12 263.304 44.916C262.992 44.724 262.836 44.526 262.836 44.322C262.836 44.226 262.86 44.148 262.908 44.088C262.968 44.028 263.046 43.998 263.142 43.998C263.214 43.998 263.322 44.058 263.466 44.178C263.634 44.346 263.82 44.472 264.024 44.556C264.612 44.796 265.278 44.916 266.022 44.916C267.15 44.916 268.044 44.568 268.704 43.872C269.364 43.176 269.694 42.258 269.694 41.118V39.876C269.37 40.644 268.866 41.22 268.182 41.604C267.51 41.988 266.802 42.18 266.058 42.18C265.242 42.18 264.498 41.976 263.826 41.568C263.166 41.148 262.644 40.578 262.26 39.858C261.888 39.138 261.702 38.334 261.702 37.446C261.702 36.558 261.888 35.754 262.26 35.034C262.644 34.314 263.166 33.75 263.826 33.342C264.498 32.934 265.242 32.73 266.058 32.73C266.862 32.73 267.594 32.946 268.254 33.378C268.926 33.798 269.406 34.308 269.694 34.908V33.378C269.694 33.282 269.724 33.198 269.784 33.126C269.856 33.054 269.946 33.018 270.054 33.018ZM266.094 41.496C266.79 41.496 267.414 41.328 267.966 40.992C268.53 40.644 268.968 40.164 269.28 39.552C269.604 38.94 269.766 38.238 269.766 37.446C269.766 36.654 269.604 35.952 269.28 35.34C268.968 34.728 268.53 34.254 267.966 33.918C267.414 33.582 266.79 33.414 266.094 33.414C265.398 33.414 264.768 33.588 264.204 33.936C263.652 34.284 263.214 34.764 262.89 35.376C262.578 35.988 262.422 36.678 262.422 37.446C262.422 38.214 262.578 38.904 262.89 39.516C263.214 40.128 263.652 40.614 264.204 40.974C264.768 41.322 265.398 41.496 266.094 41.496ZM280.68 33.018C280.788 33.018 280.872 33.054 280.932 33.126C281.004 33.198 281.04 33.282 281.04 33.378V41.64C281.04 41.736 281.004 41.82 280.932 41.892C280.86 41.964 280.776 42 280.68 42C280.572 42 280.482 41.964 280.41 41.892C280.35 41.82 280.32 41.736 280.32 41.64V40.02C280.02 40.632 279.558 41.148 278.934 41.568C278.31 41.976 277.62 42.18 276.864 42.18C276.072 42.18 275.358 41.976 274.722 41.568C274.086 41.148 273.588 40.578 273.228 39.858C272.868 39.126 272.688 38.31 272.688 37.41C272.688 36.522 272.868 35.724 273.228 35.016C273.6 34.296 274.104 33.738 274.74 33.342C275.376 32.934 276.084 32.73 276.864 32.73C277.644 32.73 278.346 32.934 278.97 33.342C279.594 33.75 280.044 34.296 280.32 34.98V33.378C280.32 33.282 280.35 33.198 280.41 33.126C280.482 33.054 280.572 33.018 280.68 33.018ZM276.9 41.496C277.56 41.496 278.154 41.322 278.682 40.974C279.222 40.614 279.642 40.122 279.942 39.498C280.242 38.874 280.392 38.178 280.392 37.41C280.392 36.678 280.242 36.006 279.942 35.394C279.642 34.782 279.222 34.302 278.682 33.954C278.154 33.594 277.56 33.414 276.9 33.414C276.24 33.414 275.64 33.588 275.1 33.936C274.572 34.272 274.158 34.746 273.858 35.358C273.558 35.958 273.408 36.642 273.408 37.41C273.408 38.178 273.558 38.874 273.858 39.498C274.158 40.122 274.572 40.614 275.1 40.974C275.628 41.322 276.228 41.496 276.9 41.496ZM288.091 32.73C288.643 32.73 288.919 32.868 288.919 33.144C288.919 33.252 288.889 33.342 288.829 33.414C288.769 33.486 288.691 33.522 288.595 33.522C288.559 33.522 288.469 33.498 288.325 33.45C288.193 33.39 288.049 33.36 287.893 33.36C287.401 33.36 286.909 33.558 286.417 33.954C285.925 34.338 285.523 34.83 285.211 35.43C284.899 36.018 284.743 36.588 284.743 37.14V41.64C284.743 41.736 284.707 41.82 284.635 41.892C284.563 41.964 284.479 42 284.383 42C284.275 42 284.185 41.964 284.113 41.892C284.053 41.82 284.023 41.736 284.023 41.64V33.378C284.023 33.282 284.059 33.198 284.131 33.126C284.203 33.054 284.287 33.018 284.383 33.018C284.491 33.018 284.575 33.054 284.635 33.126C284.707 33.198 284.743 33.282 284.743 33.378V35.286C285.019 34.554 285.445 33.948 286.021 33.468C286.609 32.988 287.299 32.742 288.091 32.73Z" fill="#191B1D"/>
</svg>
